<svg width="48" height="48" viewBox="0 0 48 48" fill="none" xmlns="http://www.w3.org/2000/svg">
<path d="M23.1364 15.3181C21.9211 15.3181 21.2306 15.5603 20.1357 16.1078C19.1589 16.5962 18.1604 17.0823 17.2139 17.6082C15.9009 18.3376 15.2944 20.3351 15.2397 21.7583C15.1705 23.5581 14.8477 25.4525 15.3187 27.2422C15.6038 28.3258 15.9399 29.4556 16.5821 30.3833C17.2922 31.4089 18.3894 31.9444 19.4074 32.6031C20.9576 33.6062 23.8777 33.6859 25.5054 32.8488C26.7956 32.1853 27.4283 31.2543 28.2079 30.085C29.3558 28.3631 30.4014 26.8861 30.4014 24.724C30.4014 22.9482 29.7976 21.4488 29.1028 19.8456C28.7869 19.1165 28.2768 17.1691 27.5586 16.7044C27.0253 16.3594 26.6847 15.7919 25.9441 15.7919H22.5047M6.42893 12.6713L12.2053 17.3332M22.6627 9.47455C22.6627 8.14393 24.1398 6.89196 25.0317 6M33.4464 15.849C33.962 14.8546 34.5131 13.8884 35.2534 13.05M36.4028 24.1624C37.8886 24.1624 39.2988 24.3219 40.7548 24.6362C41.6947 24.8392 42.5418 25.5838 43.5098 25.5838M34.1918 38.2186V42.3249M20.9253 38.8503C21.0074 38.8606 21.557 41.3244 21.557 41.6931M13.5024 36.9551C13.3917 36.0694 9.34818 37.5744 8.9223 37.7448M4.5 25.4259H9.86976" stroke="#DECFC5" stroke-width="2" stroke-linecap="round"/>
</svg>
