<svg width="50" height="52" viewBox="0 0 50 52" fill="none" xmlns="http://www.w3.org/2000/svg">
<path d="M23.2669 2.0276C21.4542 2.0276 19.5816 1.8019 17.908 2.64136C13.7093 4.74726 10.9127 7.85406 7.40111 10.7896C3.12218 14.3665 2 19.6774 2 25.0543C2 31.4289 4.61881 36.3657 7.5066 41.8375C10.0575 46.671 14.5039 47.6256 19.0895 49.5624C21.297 50.4949 25.6283 49.6471 27.9929 49.6471C30.3806 49.6471 33.2276 50.0534 35.5038 49.3508C39.5056 48.1156 42.2755 45.745 45.4832 43.1709C47.867 41.2578 47.9517 36.5005 47.9517 33.647C47.9517 28.5452 48.2825 23.4258 47.2132 18.5992C46.4427 15.1209 42.5925 15.7607 40.1665 14.4087C36.9967 12.6422 32.5097 13.0753 28.9634 13.0753C22.5386 13.0753 21.3681 22.2377 21.3681 27.0014C21.3681 28.4366 20.8529 31.1509 21.4525 32.5041C21.9906 33.7187 22.6014 34.5527 23.2669 35.721C24.4679 37.8294 30.8707 37.6775 32.761 36.7793C36.0051 35.2378 37.7389 32.9745 36.9174 29.266C36.2381 26.1998 33.0612 25.6469 30.4824 25.6469" stroke="#E8C291" stroke-width="3" stroke-linecap="round"/>
</svg>
